<svg xmlns="http://www.w3.org/2000/svg" width="1024" height="1024" viewBox="0 0 1024 1024" role="img" aria-labelledby="title desc">
<title id="title">repo-standards logo</title>
<desc id="desc">A dark rounded badge with stacked standard cards, a repo branch graph, and a green check mark.</desc>
<defs>
  <filter id="shadow" x="-20%" y="-20%" width="140%" height="140%"><feDropShadow dx="0" dy="18" stdDeviation="18" flood-color="#000" flood-opacity="0.35"/></filter>
</defs>
<rect x="0" y="0" width="1024" height="1024" fill="none"/>
<g filter="url(#shadow)">
<rect x="232" y="238" width="560" height="560" rx="105" fill="#0F172A" stroke="#38BDF8" stroke-width="8"/>
<rect x="256" y="262" width="512" height="512" rx="82" fill="none" stroke="#1E293B" stroke-width="5"/>
<line x1="512" y1="292" x2="512" y2="336" stroke="#CBD5E1" stroke-width="8" stroke-linecap="round"/>
<line x1="512" y1="312" x2="424" y2="344" stroke="#CBD5E1" stroke-width="8" stroke-linecap="round"/>
<line x1="512" y1="312" x2="600" y2="344" stroke="#CBD5E1" stroke-width="8" stroke-linecap="round"/>
<circle cx="512" cy="282" r="16" fill="#F8FAFC"/>
<circle cx="424" cy="344" r="17" fill="#38BDF8"/>
<circle cx="600" cy="344" r="17" fill="#22C55E"/>
<g>
<rect x="326" y="402" width="372" height="96" rx="27" fill="#1E293B" stroke="#38BDF8" stroke-width="7"/>
<circle cx="376" cy="450" r="16" fill="#38BDF8"/>
<rect x="454" y="433" width="198" height="18" rx="9" fill="#94A3B8"/>
<rect x="454" y="462" width="138" height="13" rx="7" fill="#475569"/>
</g>
<g>
<rect x="326" y="520" width="372" height="96" rx="27" fill="#1E293B" stroke="#3B82F6" stroke-width="7"/>
<circle cx="376" cy="568" r="16" fill="#3B82F6"/>
<rect x="454" y="551" width="198" height="18" rx="9" fill="#94A3B8"/>
<rect x="454" y="580" width="138" height="13" rx="7" fill="#475569"/>
</g>
<g>
<rect x="326" y="638" width="372" height="96" rx="27" fill="#1E293B" stroke="#22C55E" stroke-width="7"/>
<path d="M363 689 L391 713 L442 663" fill="none" stroke="#22C55E" stroke-width="12" stroke-linecap="round" stroke-linejoin="round"/>
<rect x="454" y="669" width="198" height="18" rx="9" fill="#94A3B8"/>
<rect x="454" y="698" width="138" height="13" rx="7" fill="#475569"/>
</g>
</g>
</svg>